:SAMPLES-PER-SECOND 30
:FULLY-SPECIFIED
:DEGREES
32
root  20.7642 76.284 29.1388 -73.4452 5.25296 -0.85817
RightUpLeg  -39.1996 -13.6962 -16.2321
RightLeg  104.346 0.215238 0.460636
RightFoot  -0.748777 -0.110411 1.13548
RightToes  -1.18548 -0.00286856 -0.0111857
Spine  17.2441 -0.356875 -2.06518
Spine1  1.94167 -0.265294 5.66364
HEad  0.129152 -15.4243 0.288153
LeftShoulder1  -7.76503e-019 -2.42657e-020 -1.34036e-021
LeftArm  -44.6383 30.3272 -41.9872
LeftForeArm  -29.106 -68.1629 -33.3677
LeftHand  10.533 55.6824 21.8127
RightShoulder  7.45443e-017 -2.42657e-020 1.96277e-018
RightArm  -50.0121 -15.1528 33.9183
RightForeArm  -8.03572 66.0607 27.9329
RightHand  -8.59939 17.1322 -42.5883
LeftUpLeg  -45.89 12.6296 12.7074
LeftLeg  106.153 3.84951 -12.4253
LeftFoot  7.6297 -0.24213 1.17102
LeftToes  -7.84473 1.06988e-006 1.21085e-007
33
root  20.7698 77.3872 28.048 -84.7548 8.55752 -0.671881
RightUpLeg  -53.6666 -16.2233 -19.2833
RightLeg  108.727 -1.09514 3.87102
RightFoot  -5.53319 -0.0644501 0.529615
RightToes  -3.03101 -0.00829733 -0.0284665
Spine  25.1123 1.23143 -6.59663
Spine1  -1.49392 -0.018834 6.7497
HEad  -9.88146 -15.1867 4.25715
LeftShoulder1  -7.76503e-019 -2.42657e-020 -1.34036e-021
LeftArm  -30.5296 26.2268 -51.7417
LeftForeArm  -29.6278 -62.0765 -24.4458
LeftHand  7.38107 54.4859 15.9819
RightShoulder  7.45443e-017 -2.42657e-020 1.96277e-018
RightArm  -37.8398 -16.2117 45.6939
RightForeArm  -7.13093 63.7593 24.6701
RightHand  -5.33976 10.844 -37.181
LeftUpLeg  -58.1655 12.4554 7.66646
LeftLeg  107.568 4.09831 -12.166
LeftFoot  3.65633 -0.148437 0.959339
LeftToes  -9.68347 1.06988e-006 1.21085e-007
34
root  20.9148 78.6813 26.8684 -100.118 8.83157 -1.53725
RightUpLeg  -64.5455 -19.2764 -17.7783
RightLeg  113.061 -2.7659 6.73063
RightFoot  -7.93399 -0.0490209 -0.160069
RightToes  -0.263096 -0.000660382 -0.00248789
Spine  34.6363 2.81189 -5.979
Spine1  -5.02755 0.45109 5.56864
HEad  -18.1481 -14.8595 7.46111
LeftShoulder1  -7.76503e-019 -2.42657e-020 -1.34036e-021
LeftArm  -23.5444 21.1125 -63.1126
LeftForeArm  -32.3263 -58.5307 -21.1305
LeftHand  6.34974 57.0043 13.1006
RightShoulder  7.45443e-017 -2.42657e-020 1.96277e-018
RightArm  -26.6094 -15.1223 56.0972
RightForeArm  -10.7604 56.7708 18.3361
RightHand  -3.59332 8.58987 -29.5133
LeftUpLeg  -67.7339 13.4999 5.38293
LeftLeg  112.326 4.90327 -11.3664
LeftFoot  0.567364 -0.101306 0.938583
LeftToes  -20.1641 1.06988e-006 1.21085e-007
35
root  20.8956 79.9485 25.1582 -122.673 1.77547 1.40692
RightUpLeg  -63.9105 -19.0608 -9.92046
RightLeg  118.242 -2.98468 5.83649
RightFoot  -11.2255 -0.075923 -0.081851
RightToes  -1.08602 -0.00279965 -0.0102496
Spine  47.5993 2.11264 4.58391
Spine1  -7.62182 1.35759 2.29953
HEad  -25.1364 -14.2748 7.73232
LeftShoulder1  -7.76503e-019 -2.42657e-020 -1.34036e-021
LeftArm  -10.0687 18.2438 -71.6609
LeftForeArm  -30.5674 -59.3819 -21.7922
LeftHand  4.8675 59.7338 9.63465
RightShoulder  7.45443e-017 -2.42657e-020 1.96277e-018
RightArm  -12.5742 -16.583 65.7312
RightForeArm  -14.1102 53.661 16.4734
RightHand  -1.27397 5.62661 -13.6695
LeftUpLeg  -68.1393 18.3656 14.6161
LeftLeg  119.098 9.22144 -15.3933
LeftFoot  -4.24958 -0.106149 2.12656
LeftToes  -24.9847 1.06988e-006 1.21085e-007
36
root  20.7131 82.554 23.5905 -129.222 1.82661 2.22566
RightUpLeg  -87.7639 -23.4466 -4.48963
RightLeg  126.293 -5.5975 7.66539
RightFoot  -10.8456 -0.0706939 -0.629626
RightToes  -6.91783 -0.0211194 -0.0642595
Spine  34.5278 4.93292 5.3711
Spine1  -4.14554 2.09144 2.68924
HEad  -29.5441 -15.3657 6.66437
LeftShoulder1  -7.76503e-019 -2.42657e-020 -1.34036e-021
LeftArm  5.61737 18.3798 -79.8324
LeftForeArm  -27.0155 -67.0989 -31.2666
LeftHand  -0.099781 56.7377 0.483701
RightShoulder  7.45443e-017 -2.42657e-020 1.96277e-018
RightArm  -4.45241 -21.4743 72.8586
RightForeArm  -18.0915 57.6734 19.5759
RightHand  -2.58181 -11.8404 41.5044
LeftUpLeg  -91.4965 25.7736 9.01366
LeftLeg  126.597 17.6853 -21.2333
LeftFoot  2.97202 -0.568147 4.37921
LeftToes  -3.83758 1.06988e-006 1.21085e-007
37
root  20.5803 83.7872 20.1744 -147.16 2.956 6.27077
RightUpLeg  -92.2494 -20.3399 -3.85573
RightLeg  128.793 -7.32508 9.00032
RightFoot  -12.1253 -0.0888087 -0.989385
RightToes  -5.84989 -0.0173549 -0.0545129
Spine  34.3041 5.87759 8.81106
Spine1  -5.1552 2.72359 1.6564
HEad  -31.6176 -14.2868 7.14982
LeftShoulder1  -7.76503e-019 -2.42657e-020 -1.34036e-021
LeftArm  0.094735 21.0551 -84.6542
LeftForeArm  -24.9823 -70.2734 -37.8275
LeftHand  1.28867 56.1953 3.25745
RightShoulder  7.45443e-017 -2.42657e-020 1.96277e-018
RightArm  1.96518 -29.2624 71.5454
RightForeArm  -7.38011 67.6659 30.5489
RightHand  1.50469 7.57716 13.0029
LeftUpLeg  -98.074 32.265 10.0542
LeftLeg  130.749 23.0562 -23.3101
LeftFoot  -0.258948 -0.547261 5.65245
LeftToes  -13.8256 1.06988e-006 1.21085e-007
38
root  20.4227 83.5958 15.8581 -169.622 7.54672 5.95838
RightUpLeg  -93.8068 -16.6711 -3.78675
RightLeg  129.88 -7.0501 8.38331
RightFoot  -12.1342 -0.087334 -0.754944
RightToes  -9.70519 -0.0317942 -0.0893514
Spine  37.9663 5.80017 6.81907
Spine1  -7.93889 2.68764 1.63927
HEad  -31.7243 -11.3833 7.92404
LeftShoulder1  -7.76503e-019 -2.42657e-020 -1.34036e-021
LeftArm  4.80019 23.6041 -77.8351
LeftForeArm  -11.3591 -73.0479 -45.4169
LeftHand  1.14652 55.1775 3.03064
RightShoulder  7.45443e-017 -2.42657e-020 1.96277e-018
RightArm  17.848 -26.4575 62.7124
RightForeArm  -10.2251 69.7849 35.2937
RightHand  1.2649 18.335 5.64947
LeftUpLeg  -93.6926 38.4166 10.6298
LeftLeg  131.506 25.4686 -24.7044
LeftFoot  -0.115997 -0.65214 6.63517
LeftToes  -2.71607 1.06988e-006 1.21085e-007
39
root  20.1917 81.5007 11.027 166.401 10.8259 1.84666
RightUpLeg  -90.545 -14.1079 -4.23904
RightLeg  129.043 -5.99032 7.43396
RightFoot  -12.5485 -0.0912923 -0.605542
RightToes  -6.24228 -0.018717 -0.0581022
Spine  42.2096 7.68867 5.72428
Spine1  -9.5503 2.2928 2.2451
HEad  -32.5096 -11.4055 7.50107
LeftShoulder1  -7.76503e-019 -2.42657e-020 -1.34036e-021
LeftArm  6.62582 22.0092 -76.8704
LeftForeArm  -13.3338 -71.6605 -40.728
LeftHand  1.42034 52.6197 3.78115
RightShoulder  7.45443e-017 -2.42657e-020 1.96277e-018
RightArm  18.0111 -23.7459 62.2823
RightForeArm  -14.5991 68.0511 32.0433
RightHand  2.34037 12.6996 14.4186
LeftUpLeg  -88.6865 37.6888 8.83575
LeftLeg  130.268 24.1143 -24.546
LeftFoot  -2.53105 -0.488309 6.52987
LeftToes  -3.47495 1.06988e-006 1.21085e-007
40
root  20.1281 77.7397 6.51755 138.865 10.9097 -3.08543
RightUpLeg  -82.3642 -10.7349 -4.32868
RightLeg  125.165 -3.87579 5.7345
RightFoot  -14.4282 -0.104254 -0.246265
RightToes  -4.18437 -0.0118483 -0.0391771
Spine  51.1564 8.02523 5.76176
Spine1  -10.9504 2.35634 1.70038
HEad  -34.3616 -12.4489 6.83116
LeftShoulder1  -7.76503e-019 -2.42657e-020 -1.34036e-021
LeftArm  2.82951 21.7748 -79.1215
LeftForeArm  -12.6019 -70.4789 -37.2566
LeftHand  -1.70831 54.6857 -2.85575
RightShoulder  7.45443e-017 -2.42657e-020 1.96277e-018
RightArm  9.27242 -25.7976 66.578
RightForeArm  -7.91465 67.5147 30.3359
RightHand  2.18578 9.74809 16.1759
LeftUpLeg  -77.5616 33.8769 9.55396
LeftLeg  127.993 19.324 -21.9073
LeftFoot  -2.93901 -0.387193 5.50855
LeftToes  19.3337 1.06988e-006 1.21085e-007
41
root  20.1757 72.661 2.43166 117.145 8.29147 -5.36635
RightUpLeg  -77.6702 -7.47203 -1.76247
RightLeg  115.556 -1.99468 4.60208
RightFoot  -13.6988 -0.0952393 -0.123493
RightToes  -5.77095 -0.0170839 -0.0537897
Spine  53.506 6.71788 5.38158
Spine1  -10.0073 2.00176 1.26087
HEad  -29.296 -13.572 6.29359
LeftShoulder1  -7.76503e-019 -2.42657e-020 -1.34036e-021
LeftArm  -0.116612 20.7725 -81.3047
LeftForeArm  -3.69385 -69.6866 -34.2116
LeftHand  0.327963 51.1206 1.43096
RightShoulder  7.45443e-017 -2.42657e-020 1.96277e-018
RightArm  -0.205961 -26.2834 71.3784
RightForeArm  -3.17943 64.9367 25.777
RightHand  1.58837 11.1623 10.6324
LeftUpLeg  -74.6817 21.9607 7.59083
LeftLeg  121.554 12.0769 -17.9766
LeftFoot  1.27291 -0.420724 3.73569
LeftToes  39.8239 1.06988e-006 1.21085e-007
42
root  20.2377 66.6017 -0.534096 100.789 6.22271 -5.44154
RightUpLeg  -73.3336 -3.55289 1.48639
RightLeg  99.0308 -0.402981 3.75301
RightFoot  -6.76512 -0.0365918 -0.232469
RightToes  -5.97097 -0.0177726 -0.0556214
Spine  50.8506 4.21921 4.43965
Spine1  -7.37381 1.34154 1.89295
HEad  -21.6529 -13.6092 4.08535
LeftShoulder1  -7.76503e-019 -2.42657e-020 -1.34036e-021
LeftArm  -3.16628 18.0217 -82.5234
LeftForeArm  -2.88123 -65.5344 -26.5542
LeftHand  1.65672 51.2661 4.42216
RightShoulder  7.45443e-017 -2.42657e-020 1.96277e-018
RightArm  -3.78861 -23.461 71.4953
RightForeArm  -5.20746 60.5808 21.0498
RightHand  -0.650124 12.7472 -4.58091
LeftUpLeg  -75.1239 11.248 5.29642
LeftLeg  107.728 5.16288 -14.8601
LeftFoot  7.23868 -0.409337 2.23274
LeftToes  44.305 1.06988e-006 1.21085e-007
43
root  20.3927 60.2448 -2.97761 91.169 4.14447 -4.80261
RightUpLeg  -74.0875 -1.32138 2.42801
RightLeg  79.8685 0.803989 3.65387
RightFoot  0.844959 0.0483763 -0.399002
RightToes  -2.28626 -0.00611917 -0.0215133
Spine  40.5609 2.77723 3.46799
Spine1  -0.765731 0.726191 2.47146
HEad  -13.9619 -13.2297 1.45786
LeftShoulder1  -7.76503e-019 -2.42657e-020 -1.34036e-021
LeftArm  -5.21197 13.8857 -82.8167
LeftForeArm  1.08045 -59.9228 -19.8293
LeftHand  3.95588 50.6778 9.72554
RightShoulder  7.45443e-017 -2.42657e-020 1.96277e-018
RightArm  -10.2438 -18.313 70.3998
RightForeArm  -7.18664 53.8378 16.0799
RightHand  -3.80814 16.4376 -20.399
LeftUpLeg  -76.7844 4.27959 4.10177
LeftLeg  87.9922 -0.271507 -13.6463
LeftFoot  8.23337 -0.325787 1.59758
LeftToes  44.2096 1.06988e-006 1.21085e-007
44
root  20.3999 53.9302 -4.24932 79.23 2.55379 -5.16817
RightUpLeg  -67.7311 2.19313 3.13726
RightLeg  60.557 0.445457 0.335619
RightFoot  0.23549 0.00668894 -0.0501246
RightToes  -12.0071 -0.0415214 -0.109662
Spine  34.2178 1.85919 2.37393
Spine1  0.517623 0.31121 2.35971
HEad  -2.16983 -11.5622 -1.64017
LeftShoulder1  -7.76503e-019 -2.42657e-020 -1.34036e-021
LeftArm  -7.69387 16.9555 -80.4868
LeftForeArm  3.72727 -57.3071 -17.4782
LeftHand  4.38386 48.2501 11.3524
RightShoulder  7.45443e-017 -2.42657e-020 1.96277e-018
RightArm  -12.5989 -20.4138 66.6634
RightForeArm  -8.19383 52.8873 15.5836
RightHand  -6.92427 19.622 -31.6156
LeftUpLeg  -70.6355 0.234069 4.82949
LeftLeg  67.5363 -6.52413 -16.2342
LeftFoot  -2.09908 -0.139451 1.8822
LeftToes  26.1279 1.06988e-006 1.21085e-007
